<?xml version="1.0" encoding="UTF-8"?>
<svg width="1280px" height="800px" viewBox="0 0 1280 800" version="1.1" xmlns="http://www.w3.org/2000/svg" xmlns:xlink="http://www.w3.org/1999/xlink">
    <!-- Generator: Sketch 46.2 (44496) - http://www.bohemiancoding.com/sketch -->
    <title>Dashboard  #2</title>
    <desc>Created with Sketch.</desc>
    <defs></defs>
    <g id="Page-1" stroke="none" stroke-width="1" fill="none" fill-rule="evenodd">
        <g id="Dashboard--#2">
            <g id="BG" fill="#FFFFFF">
                <rect id="Rectangle" x="0" y="0" width="1280" height="800"></rect>
            </g>
            <g id="Lines" transform="translate(0.000000, 400.000000)" fill="#EBEBEB">
                <rect id="Rectangle-" x="160" y="0" width="1" height="400"></rect>
                <rect id="Rectangle-" x="320" y="0" width="1" height="400"></rect>
                <rect id="Rectangle-" x="1120" y="0" width="1" height="400"></rect>
                <rect id="Rectangle-" x="960" y="0" width="1" height="400"></rect>
                <rect id="Rectangle-" x="800" y="0" width="1" height="400"></rect>
                <rect id="Rectangle-" x="960" y="0" width="1" height="400"></rect>
                <rect id="Rectangle-" x="800" y="0" width="1" height="400"></rect>
                <rect id="Rectangle-" transform="translate(640.000000, 240.500000) rotate(-270.000000) translate(-640.000000, -240.500000) " x="639.5" y="-399.5" width="1" height="1280"></rect>
                <rect id="Rectangle-" transform="translate(640.000000, 80.500000) rotate(-270.000000) translate(-640.000000, -80.500000) " x="639.5" y="-559.5" width="1" height="1280"></rect>
            </g>
            <g id="Graphics" transform="translate(-186.000000, 401.000000)" stroke-width="3">
                <g id="3" transform="translate(0.000000, 51.000000)" stroke="#51B8BB" fill-opacity="0.8" fill="#4DB9CD">
                    <path d="M8.92,333.803 C8.92,333.803 159.415,208.165 277.261,216.193 C348.19,221.024 328.315,214.046 398.398,224.32 C431.094,229.112 457.225,159.037 489.338,152.04 C516.195,146.188 599.8,178.766 627.25,182.243 C712.032,192.98 710.269,123.606 796.033,123.485 C838.531,123.425 869.551,170.065 910.859,165.268 C944.428,161.369 962.277,139.173 1005.823,127.923 C1036.482,120.002 1095.696,144.468 1121.081,143.2 C1154.326,141.539 1159.246,87.423 1184.891,76.908 C1212.17,65.722 1227.995,114.576 1281.081,127.923 C1318.925,137.437 1343.802,5.186 1382.953,0.586 C1413.289,-2.977 1458.415,96.125 1486.57,106.155 C1535.616,123.627 1523.899,49.59 1523.899,49.59 L1574.5,424.191 C1574.5,424.191 13.52,464.929 8.92,467.475 C4.319,470.021 -3.348,333.803 2.786,333.803 L8.92,333.803 L8.92,333.803 Z" id="Shape"></path>
                </g>
                <g id="2" transform="translate(109.000000, 0.000000)" stroke="#F9593A" fill-opacity="0.8" fill="#FF5746">
                    <path d="M0.5,384.496 C3.504,383.726 155.653,305.119 229.503,309.353 C264.713,311.371 395.032,360.617 444.098,332.887 C493.164,305.157 565.261,241.573 630.349,257.749 C695.437,273.925 857.47,302.515 897.523,281.718 C937.578,260.92 1036.963,167.317 1098.981,180.338 C1135.439,187.993 1183.094,235.413 1244.177,213.845 C1305.259,192.276 1316.273,-13.38 1353.324,1.256 C1390.374,15.891 1484.5,498.499 1484.5,498.499 L87.617,498.499 L0.5,384.496 L0.5,384.496 Z" id="Shape"></path>
                </g>
                <g id="1" transform="translate(86.000000, 153.000000)" stroke="#FFC80B" fill-opacity="0.68" fill="#FFC80B">
                    <path d="M0.5,284.297 C3.522,283.433 168.695,223.827 237.182,258.382 C305.669,292.936 361.958,273.078 443.537,238.523 C525.117,203.969 557.458,165.954 600.766,167.681 C644.073,169.409 686.601,223.398 740.987,210.44 C795.374,197.482 828.068,148.172 923.373,159.907 C1018.679,171.641 1035.521,196.62 1096.958,187.117 C1158.394,177.615 1216.854,2.243 1267.213,0.532 C1317.57,-1.178 1392.391,86.05 1438.721,101.599 C1485.05,117.149 1548.5,84.755 1548.5,84.755 L1541.451,397.508 C1541.451,397.508 32.729,394.917 34.743,397.508 C36.758,400.1 0.5,284.297 0.5,284.297 L0.5,284.297 Z" id="Shape"></path>
                </g>
            </g>
        </g>
    </g>
</svg>